<svg xmlns="http://www.w3.org/2000/svg" width="369.26218mm" height="259.66791mm" viewBox="0 0 369.26218 259.66791"><defs><radialGradient id="b" cx="0" cy="0" r="1" fx="0" fy="0" gradientTransform="matrix(75.40875 0 0 77.0938 198.158 328.189)" gradientUnits="userSpaceOnUse" spreadMethod="pad"><stop offset="0" style="stop-opacity:1;stop-color:#d92226"/><stop offset="0.74184755" style="stop-opacity:1;stop-color:#d92226"/><stop offset="1" style="stop-opacity:1;stop-color:#e88221"/></radialGradient><radialGradient id="c" cx="0" cy="0" r="1" fx="0" fy="0" gradientTransform="matrix(75.36195 0 0 77.04593 198.139 328.479)" gradientUnits="userSpaceOnUse" spreadMethod="pad"><stop offset="0" style="stop-opacity:1;stop-color:#d92226"/><stop offset="0.74184755" style="stop-opacity:1;stop-color:#d92226"/><stop offset="1" style="stop-opacity:1;stop-color:#e88221"/></radialGradient><radialGradient id="d" cx="0" cy="0" r="1" fx="0" fy="0" gradientTransform="matrix(75.22184 0 0 76.9027 198.038 328.404)" gradientUnits="userSpaceOnUse" spreadMethod="pad"><stop offset="0" style="stop-opacity:1;stop-color:#d92226"/><stop offset="0.74184755" style="stop-opacity:1;stop-color:#d92226"/><stop offset="1" style="stop-opacity:1;stop-color:#e88221"/></radialGradient><radialGradient id="e" cx="0" cy="0" r="1" fx="0" fy="0" gradientTransform="matrix(75.06695 0 0 76.74443 198.084 328.48)" gradientUnits="userSpaceOnUse" spreadMethod="pad"><stop offset="0" style="stop-opacity:1;stop-color:#d92226"/><stop offset="0.74184755" style="stop-opacity:1;stop-color:#d92226"/><stop offset="1" style="stop-opacity:1;stop-color:#e88221"/></radialGradient><radialGradient id="f" cx="0" cy="0" r="1" fx="0" fy="0" gradientTransform="matrix(75.20198 0 0 76.88241 198.18 328.62)" gradientUnits="userSpaceOnUse" spreadMethod="pad"><stop offset="0" style="stop-opacity:1;stop-color:#d92226"/><stop offset="0.74184755" style="stop-opacity:1;stop-color:#d92226"/><stop offset="1" style="stop-opacity:1;stop-color:#e88221"/></radialGradient><radialGradient id="g" cx="0" cy="0" r="1" fx="0" fy="0" gradientTransform="matrix(75.35526 0 0 77.03913 198.063 328.304)" gradientUnits="userSpaceOnUse" spreadMethod="pad"><stop offset="0" style="stop-opacity:1;stop-color:#d92226"/><stop offset="0.74184755" style="stop-opacity:1;stop-color:#d92226"/><stop offset="1" style="stop-opacity:1;stop-color:#e88221"/></radialGradient><radialGradient id="h" cx="0" cy="0" r="1" fx="0" fy="0" gradientTransform="matrix(75.306 0 0 76.98878 198.018 328.506)" gradientUnits="userSpaceOnUse" spreadMethod="pad"><stop offset="0" style="stop-opacity:1;stop-color:#d92226"/><stop offset="0.74184755" style="stop-opacity:1;stop-color:#d92226"/><stop offset="1" style="stop-opacity:1;stop-color:#e88221"/></radialGradient><radialGradient id="i" cx="0" cy="0" r="1" fx="0" fy="0" gradientTransform="matrix(75.12694 0 0 76.8057 198.085 328.493)" gradientUnits="userSpaceOnUse" spreadMethod="pad"><stop offset="0" style="stop-opacity:1;stop-color:#d92226"/><stop offset="0.74184755" style="stop-opacity:1;stop-color:#d92226"/><stop offset="1" style="stop-opacity:1;stop-color:#e88221"/></radialGradient><radialGradient id="j" cx="0" cy="0" r="1" fx="0" fy="0" gradientTransform="matrix(75.11213 0 0 76.79057 198.11 328.506)" gradientUnits="userSpaceOnUse" spreadMethod="pad"><stop offset="0" style="stop-opacity:1;stop-color:#d92226"/><stop offset="0.74184755" style="stop-opacity:1;stop-color:#d92226"/><stop offset="1" style="stop-opacity:1;stop-color:#e88221"/></radialGradient><radialGradient id="k" cx="0" cy="0" r="1" fx="0" fy="0" gradientTransform="matrix(75.15983 0 0 76.83936 198.052 328.54)" gradientUnits="userSpaceOnUse" spreadMethod="pad"><stop offset="0" style="stop-opacity:1;stop-color:#d92226"/><stop offset="0.74184755" style="stop-opacity:1;stop-color:#d92226"/><stop offset="1" style="stop-opacity:1;stop-color:#e88221"/></radialGradient><radialGradient id="l" cx="0" cy="0" r="1" fx="0" fy="0" gradientTransform="matrix(76.05843 0 0 76.05843 198.115 328.934)" gradientUnits="userSpaceOnUse" spreadMethod="pad"><stop offset="0" style="stop-opacity:1;stop-color:#d92226"/><stop offset="0.74184755" style="stop-opacity:1;stop-color:#d92226"/><stop offset="1" style="stop-opacity:1;stop-color:#e88221"/></radialGradient><clipPath id="a" clipPathUnits="userSpaceOnUse"><path d="M83.179 293.386H325.01v170.079H83.179Z"/></clipPath><clipPath id="m" clipPathUnits="userSpaceOnUse"><path d="M83.179 293.386H325.01v170.079H83.179Z"/></clipPath></defs><g style="stroke-width:.231035"><g clip-path="url(#a)" style="stroke-width:.231035" transform="matrix(1.52694 0 0 -1.52694 -127.01 707.684)"><g style="stroke-width:.231035"><path d="m0 0-4.499 5.524 6.533 8.046H-1.53c-1.599 0-2.695-.491-3.665-1.627l-3.442-4.235V19.335h-3.452c-.813 0-1.471-.66-1.471-1.472V-3.828h3.45a1.47 1.47 0 0 1 1.473 1.469v5.771l2.796-3.429 2.376-2.927c.483-.605 1.114-.884 1.76-.884h4.82z" style="fill:#fff;fill-opacity:1;fill-rule:nonzero;stroke:none;stroke-width:.231035" transform="translate(203.638 444.128)"/></g><g style="stroke-width:.231035"><path d="M0 0c-2.657 0-4.497 1.834-4.497 4.495v17.2c0 .81.663 1.47 1.475 1.47H.433V5.419c0-.732.593-1.325 1.321-1.325h3.515V1.469A1.47 1.47 0 0 0 3.796 0Z" style="fill:#fff;fill-opacity:1;fill-rule:nonzero;stroke:none;stroke-width:.231035" transform="translate(212.49 440.3)"/></g><g style="stroke-width:.231035"><path d="m0 0-.302-.321C-.319-.323-1.239-1.27-3.9-1.27h-12.551c-1.981 0-2.918-.811-3.629-1.682l-.393-.486c-.013-.01-.019-.021-.029-.031l-2.49-3.066c.903.683 2.148 1.091 3.414 1.091H-3.9c1.908 0 3.731.567 3.883 1.99.019.114.017.185.017.185Zm-23.001-6.542.009.007-.013-.007z" style="fill:#e02227;fill-opacity:1;fill-rule:nonzero;stroke:none;stroke-width:.231035" transform="translate(218.47 458.974)"/></g><g style="stroke-width:.231035"><path d="M0 0a60.914 60.914 0 0 1-6.331 12.562c.157.076.317.148.473.23 2.952-4.756 8.226-7.934 14.227-7.934.124 0 .247.012.373.014C6.444 3.345 3.56 1.709 0 0m-137.71-11.112c-.322 3.355 6.196 10.095 28.517 18.675h1.644c-4.355-8.51-6.527-17.816-6.582-27.122-10.308.918-18.109 2.903-21.84 5.902-1.072.865-1.658 1.722-1.739 2.545m187.983 37.66 15.469 11.817H36.85l-2.971-7.742-2.893 7.742H18.012v-3.098a16.632 16.632 0 0 1-9.643 3.071 16.65 16.65 0 0 1-7.772-1.921c-2.952 4.761-8.225 7.939-14.227 7.939-6.195 0-11.606-3.385-14.503-8.397-2.388 1.526-5.488 2.406-9.008 2.406l-38.547.065v-.036c-2.612 0-5.081-.7-7.248-1.966v1.966h-28.375c-3.09 3.856-7.652 6.128-12.531 6.128-3.905 0-7.609-1.464-10.538-4.049-7.343 8.538-23.117 10.876-31.161 7.396h-.002c-4.682-2.026-8.061-6.24-8.061-11.631 0-.12-1.017-8.576 9.37-14.107 4.093-2.181 8.394-3.515 11.789-4.674 2.465-.839 6.736-2.017 6.39-2.775.002-.006.002-.008.002-.014-1.435-1.921-11.897.289-11.897.289l-18.139-28.886s12.857 2.199 25.292 6.706c-1.342-2.515-2.015-5.162-1.747-7.918.344-3.589 2.226-6.784 5.59-9.487 6.497-5.225 18.772-8.504 34.509-9.671 2.95-12.351 9.726-23.897 20.125-32.589 12.298-10.287 27.74-15.092 43.486-13.526 15.605 1.551 29.638 9.192 39.52 21.511C1.104-45.909 5.189-29.694 3.368-14.119c.713.325 1.428.65 2.123.981 10.196 4.877 21.831 12.1 25.182 20.747h27.929l-8.329 6.025z" style="fill:#221b19;fill-opacity:1;fill-rule:nonzero;stroke:none;stroke-width:.231035" transform="translate(259.268 392.446)"/></g><g style="stroke-width:.231035"><path d="M0 0c.743.038 1.488.076 2.239.118C-1.013 10.365-1.097 19.738.055 27.43h-1.391C-2.79 19.255-2.758 9.76 0 0" style="fill:#fff;fill-opacity:1;fill-rule:nonzero;stroke:none;stroke-width:.231035" transform="translate(170.465 372.581)"/></g><g style="stroke-width:.231035"><path d="M0 0a142.133 142.133 0 0 0-8.491-18.221c1.536.489 3.047.989 4.52 1.5C-.869-10.293.806-5.132 1.555-2.482a54.491 54.491 0 0 0 4.727-10.304c.361.154.732.304 1.085.46.251.108.485.218.73.325A57.436 57.436 0 0 1 1.551.755 16.529 16.529 0 0 0-.279.401C-.186.266-.091.135 0 0" style="fill:#fff;fill-opacity:1;fill-rule:nonzero;stroke:none;stroke-width:.231035" transform="translate(248.21 403.08)"/></g><g style="stroke-width:.231035"><path d="M0 0h-3.558c-4.714-8.519-7.041-17.949-7.077-27.369 1.281-.082 2.589-.152 3.935-.207C-6.953-18.105-4.756-8.561 0 0" style="fill:#fff;fill-opacity:1;fill-rule:nonzero;stroke:none;stroke-width:.231035" transform="translate(159.005 400.01)"/></g><g style="stroke-width:.231035"><path d="M0 0c.466.074.924.154 1.388.23.283.928.585 1.863.91 2.806-.943-.438-1.872-.865-2.775-1.282a64.755 64.755 0 0 1-.58-1.914C-.705-.108-.352-.055 0 0" style="fill:#fff;fill-opacity:1;fill-rule:nonzero;stroke:none;stroke-width:.231035" transform="translate(200.143 375.682)"/></g><g style="stroke-width:.231035"><path d="M0 0a52.065 52.065 0 0 0-12.847-11.496c-12.884-.342-25.123 3.051-35.594 10.58a88.695 88.695 0 0 1 8.415 4.714C-22.235-8.878 1.863 10.65 9.253 17.354A53.102 53.102 0 0 0 0 0m-54.303-17.472c.943 1.395 2.323 6.476-2.676 13.06.675.251 1.376.523 2.096.816 1.561.564 3.388 1.249 4.496 1.756 17.048-12.686 32.932-10.722 37.163-9.888-12.294-7.601-27.217-9.629-41.079-5.744m-1.99.601c-6.244 2.024-12.237 5.267-17.624 9.772-.376.313-.743.635-1.108.956 2.593-.956 6.668-1.43 12.861.118a35.09 35.09 0 0 1 3.381.815c2.91-3.408 3.992-7.696 2.49-11.661M9.363 17.723C-6.012 5.341-25.44-3.908-38.344 4.889a92.384 92.384 0 0 1 9.728 7.466 103.135 103.135 0 0 1 15.649 16.242 260.83 260.83 0 0 0-5.668-1.483c-8.133-8.889-15.672-15.316-22.473-19.935-3.733 3.747-5.388 8.698-5.512 14.397-.753-.111-1.505-.221-2.256-.327.171-5.798 1.882-11.122 6.101-15.174-2.984-1.933-5.818-3.518-8.487-4.809-3.704 3.024-7.162 6.594-10.313 10.751a80.322 80.322 0 0 0-4.927 7.285c-.869-.066-1.735-.129-2.596-.188a66.3 66.3 0 0 1 5.149-7.552c3.547-4.508 7.166-8.186 10.758-11.189a58.904 58.904 0 0 0-5.997-2.306c-12.03 12.326-19.988 8.772-30.8 20.526-.211.004-.418.012-.629.017 2.627-3.368 6.558-7.563 11.38-10.087 4.925-2.572 12.551-5.21 18-11.066-8.255-2.287-13.965-1.62-16.432-1.097a54.17 54.17 0 0 0-13.3 22.26c-1.53.047-3.039.103-4.516.182 2.903-11.326 9.234-21.885 18.825-29.906 23.916-20.002 59.008-16.63 78.386 7.534C11.38 8.468 15.305 23.395 13.857 37.818a193.69 193.69 0 0 0-2.253-.949c.39-6.426-.338-12.917-2.241-19.146" style="fill:#fff;fill-opacity:1;fill-rule:nonzero;stroke:none;stroke-width:.231035" transform="translate(245.682 339.134)"/></g><g style="stroke-width:.231035"><path d="M0 0a5.252 5.252 0 0 0-5.246 5.248A5.255 5.255 0 0 0 0 10.498a5.255 5.255 0 0 0 5.248-5.25A5.252 5.252 0 0 0 0 0m-21.999 6.014a5.248 5.248 0 0 0-4.325 2.281 94.077 94.077 0 0 0 9.487 2.057c-.433-2.462-2.579-4.338-5.162-4.338m0 10.498a5.254 5.254 0 0 0 4.105-1.986c-2.9-.318-5.898-.774-8.996-1.375a5.252 5.252 0 0 0 4.891 3.361M-46-6.463c-1.367-.61-4.125-1.676-6.113-2.419v4.871h6.829c1.019 0 2.04-1.224-.716-2.452m-6.113 15.765h4.586c.01 0 1.603-.18 1.603-1.163a.42.42 0 0 0-.05-.182 165.791 165.791 0 0 1-5.183-1.89 4.728 4.728 0 0 0-.956-.11zm-80.098-3.457c-2.779 0-5.043 2.418-5.043 5.389 0 2.974 2.264 5.392 5.043 5.392 2.782 0 5.042-2.418 5.042-5.392 0-2.971-2.26-5.389-5.042-5.389m-13.555 3.075c-1.999 1.768-4.442 3.22-7.297 4.226-5.406 1.91-9.224 3.096-10.768 4.748-.954 1.024-.038 4.24 5.442 1.724 2.587-1.186 2.631-4.391 2.631-4.391s9.492-.008 10.38-.002a14.454 14.454 0 0 1-.584-3.991c0-.789.078-1.561.196-2.314m185.102 2.431 9.13 8.096H30.247S27.2 11.505 25.478 7.025l-4.644 12.422h-8.62v-7.046C9.749 16.592 5.204 19.42 0 19.42a14.08 14.08 0 0 1-8.785-3.073c-2.051 5.305-7.191 9.087-13.214 9.087-6.404 0-11.823-4.273-13.572-10.116-1.931 2.53-5.529 4.129-9.937 4.129h-28.405l10.572-9.221V7.105l-4.946-2.737-10.226 4.412 2.659-6.712h-6.926c-2.289 0-4.153 2.091-4.153 4.659 0 2.568 1.864 4.657 4.153 4.657h6.194v8.093h-7.47c-4.09 0-7.62-2.034-9.817-5.185v5.185h-15.162v-7.553l-3.914 7.553h-7.873v-.201c-2.475 3.816-6.655 6.327-11.389 6.327-4.114 0-7.959-1.923-10.561-5.191-6.67 9.77-22.954 11.85-30.116 8.748-3.788-1.637-6.345-5.319-6.518-9.381-.114-2.712.772-7.838 8.02-11.737 3.9-2.102 8.103-3.379 11.406-4.505 4.174-1.425 7.544-2.53 8.006-4.421 1.399-5.683-13.05-3.336-13.05-3.336l-13.159-21.163s24.597 3.798 33.784 12.064c2.832 2.544 4.373 6.163 4.373 10.052 0 .961-.1 1.942-.292 2.921 2.277-1.743 5.073-2.785 8.107-2.785 4.734 0 8.914 2.511 11.389 6.324v-9.412h8.116v5.94l3.047-5.94h15.786v5.356c2.216-3.229 5.776-5.356 9.817-5.356h6.17l-3.315-4.045 10.641 1.121 2.729-8.538 4.361 8.757.129-.027v-6.495L-71.71-29.65l4.858 2.136c.987.434 24.197 10.65 27.778 12.393 2.026.983 8.187 3.979 8.187 10.812 0 4.478-3.036 6.945-6.187 8.171.469.42.895.898 1.277 1.424.281.103.559.207.838.306 2.192-4.995 7.166-8.502 12.96-8.502 3.318 0 6.369 1.154 8.785 3.072C-11.163-5.145-6.022-8.924 0-8.924c5.204 0 9.749 2.826 12.214 7.016v-4.264h30.475l-3.353 3.296z" style="fill:#fff;fill-opacity:1;fill-rule:nonzero;stroke:none;stroke-width:.231035" transform="translate(267.637 408.797)"/></g><g style="stroke-width:.231035"><path d="M0 0a189.07 189.07 0 0 0 6.539 2.768h-.111v5.953h6.296c.91 0 3.007-.626 3.286-2.46 2.899.968 5.725 1.819 8.478 2.557-.181 3.972-4.279 6.624-9.744 6.624H-9.093l7.717-6.729v-2.95l4.575 2.53z" style="fill:#d92226;fill-opacity:1;fill-rule:nonzero;stroke:none;stroke-width:.231035" transform="translate(207.383 411.089)"/></g><g style="stroke-width:.231035"><path d="M0 0c.975 0 3.11-.163 3.11-2.211 0-2.052-1.513-2.777-3.11-3.508-2.342-1.074-8.542-3.319-8.542-3.319V-.61a182.746 182.746 0 0 1-5.206-2.916l3.014-4.702-5.611 1.207v-6.59l-5.913-10.036S1.87-13.03 5.465-11.283c2.628 1.277 7.223 3.883 7.223 9.272 0 5.989-6.693 7.204-8.675 7.434A147.33 147.33 0 0 1-7.388 0Z" style="fill:#d92226;fill-opacity:1;fill-rule:nonzero;stroke:none;stroke-width:.231035" transform="translate(222.352 406.497)"/></g><g style="stroke-width:.231035"><path d="M0 0c-3.744 0-6.778 3.191-6.778 7.124 0 3.935 3.034 7.126 6.778 7.126 3.741 0 6.776-3.191 6.776-7.126C6.776 3.191 3.741 0 0 0m0 19.757c-4.159 0-7.822-2.221-9.979-5.598l-.209-.359c-.097-.164-.186-.333-.274-.5.01-.025.027-.05.04-.076l-.19-.331a.407.407 0 0 0-.066-.006 13.055 13.055 0 0 1-1.339-5.763C-12.017.148-6.637-5.508 0-5.508c6.634 0 12.013 5.656 12.013 12.632 0 6.978-5.379 12.633-12.013 12.633" style="fill:#d92226;fill-opacity:1;fill-rule:nonzero;stroke:none;stroke-width:.231035" transform="translate(135.427 412.907)"/></g><g style="stroke-width:.231035"><path d="M0 0c-6.079-2.76-9.006-12.273 1.638-18 9.407-5.064 18.949-5.391 20.257-9.977 2.433-8.514-13.845-5.72-13.845-5.72l-9.772-16.215s19.479 2.323 28.365 10.313c6.696 6.022 4.841 18.983-8.084 23.545-5.191 1.829-9.935 3.557-11.374 4.98-2.081 2.053-1.422 4.513.806 5.334 3.52 1.296 9.053-.808 10.057-4.794 0-.099 10.382-.103 11.264-.038.07.139.142.279.216.416C24.448.631 7.514 3.412 0 0" style="fill:#d92226;fill-opacity:1;fill-rule:nonzero;stroke:none;stroke-width:.231035" transform="translate(95.436 436.365)"/></g><g style="stroke-width:.231035"><path d="m0 0-6.706 12.929h-5.084V-9.293h4.647V2.1l5.841-11.393h5.461v22.222H0Z" style="fill:#d92226;fill-opacity:1;fill-rule:nonzero;stroke:none;stroke-width:.231035" transform="translate(160.338 413.609)"/></g><path d="M166.234 404.313h5.794v22.224h-5.794z" style="fill:#d92226;fill-opacity:1;fill-rule:nonzero;stroke:none;stroke-width:.231035"/><g style="stroke-width:.231035"><path d="M0 0h-7.616c-3.253 0-5.887 2.863-5.887 6.394 0 3.53 2.634 6.394 5.887 6.394h4.457v4.621h-5.733c-5.765 0-10.439-4.756-10.439-11.015S-14.657-4.815-8.892-4.815h7.594L.863-2.182z" style="fill:#d92226;fill-opacity:1;fill-rule:nonzero;stroke:none;stroke-width:.231035" transform="translate(192.472 409.13)"/></g><g style="stroke-width:.231035"><path d="M0 0h5.748v.291A55.888 55.888 0 0 1 0 4.917Z" style="fill:#d92226;fill-opacity:1;fill-rule:nonzero;stroke:none;stroke-width:.231035" transform="translate(299.514 404.336)"/></g><g style="stroke-width:.231035"><path d="m0 0 6.331 5.613H-6.2l-4.292-11.178C-6.438-7.903-2.948-10.58 0-13.412Z" style="fill:#d92226;fill-opacity:1;fill-rule:nonzero;stroke:none;stroke-width:.231035" transform="translate(305.261 420.92)"/></g><g style="stroke-width:.231035"><path d="M0 0h-5.721v-5.552a62.333 62.333 0 0 0 9.093-3.467z" style="fill:#d92226;fill-opacity:1;fill-rule:nonzero;stroke:none;stroke-width:.231035" transform="translate(287.283 426.532)"/></g><g style="stroke-width:.231035"><path d="m0 0-1.007 2.695A59.801 59.801 0 0 1-11.53 6.771V-6.653h4.794v9.966l4.297-9.966h5.714l2.332 5.478A58.109 58.109 0 0 1 .696 1.808Z" style="fill:#d92226;fill-opacity:1;fill-rule:nonzero;stroke:none;stroke-width:.231035" transform="translate(293.092 410.988)"/></g><g style="stroke-width:.231035"><path d="M0 0a6.95 6.95 0 0 0 6.027-3.492 95.77 95.77 0 0 0 5.811.352C10.228 1.87 5.545 5.501 0 5.501c-6.818 0-12.351-5.478-12.452-12.27 1.922.493 3.811.936 5.661 1.327A6.963 6.963 0 0 0 0 0" style="fill:#d92226;fill-opacity:1;fill-rule:nonzero;stroke:none;stroke-width:.231035" transform="translate(245.638 427.02)"/></g><g style="stroke-width:.231035"><path d="M0 0a6.96 6.96 0 0 0-6.961-6.959A6.959 6.959 0 0 0-13.921 0a6.955 6.955 0 0 0 3.72 6.157 77.81 77.81 0 0 1-11.829-.772c-.323-3.549-3.298-6.33-6.93-6.33a6.957 6.957 0 0 0-6.05 3.528A108.75 108.75 0 0 1-40.319.912c1.95-4.335 6.297-7.359 11.359-7.359 3.914 0 7.4 1.809 9.686 4.632.88-6.02 6.05-10.646 12.313-10.646 6.883 0 12.46 5.58 12.46 12.461 0 1.517-.283 2.965-.781 4.309a64.28 64.28 0 0 1-7.679 1.38A6.948 6.948 0 0 0 0 0" style="fill:#d92226;fill-opacity:1;fill-rule:nonzero;stroke:none;stroke-width:.231035" transform="translate(274.598 414.045)"/></g><g style="stroke-width:.231035"><path d="M0 0a12.422 12.422 0 0 1-9.47 4.374c-2.858 0-5.485-.966-7.589-2.585C-10.842 1.798-5.161 1.152 0 0" style="fill:#d92226;fill-opacity:1;fill-rule:nonzero;stroke:none;stroke-width:.231035" transform="translate(277.108 422.13)"/></g><g style="stroke-width:.231035"><path d="M0 0c-.245-.158-.485-.323-.741-.473-9.253-10.386-39.219-21.625-75.383-27.356-44.398-7.039-81.314-3.119-82.453 8.757-.456 4.727 5.921 11.406 26.042 20.017v3.849c-3.417-1.089-7.209-2.511-10.203-3.988a111.176 111.176 0 0 1-5.531-2.84c-.838-1.726-2.007-3.26-3.555-4.455-2.94-2.268-6.654-4.275-10.646-6.024-3.026-3.36-4.535-6.702-4.229-9.889 1.441-14.973 42.317-20.821 91.305-13.055C-32.499-28.658 2.389-13.676 9.437 0Z" style="fill:#bec0c1;fill-opacity:1;fill-rule:nonzero;stroke:none;stroke-width:.231035" transform="translate(276.78 400.055)"/></g><g style="stroke-width:.231035"><path d="M0 0c-51.416-6.482-60.313-.475-60.615.954-.757 3.566 18.391-1.37 60.058 4.824 35.66 5.307 67.582 19.905 65.668 15.199C64.531 19.559 41.602 5.242 0 0" style="fill:#bec0c1;fill-opacity:1;fill-rule:nonzero;stroke:none;stroke-width:.231035" transform="translate(200.484 365.746)"/></g><g style="stroke-width:.231035"><path d="M0 0c-50.079-6.328-59.298-.557-59.604.865-.743 3.459 18.253-1.298 59.041 4.771 34.971 5.208 66.17 19.479 64.438 14.881C63.354 19.131 40.72 5.149 0 0" style="fill:#c1c2c3;fill-opacity:1;fill-rule:nonzero;stroke:none;stroke-width:.231035" transform="translate(200.528 365.828)"/></g><g style="stroke-width:.231035"><path d="M0 0c-48.745-6.172-58.283-.642-58.591.776C-59.323 4.13-40.475-.452-.57 5.493c34.282 5.108 64.755 19.055 63.208 14.562C62.172 18.705 39.84 5.056 0 0" style="fill:#c3c4c5;fill-opacity:1;fill-rule:nonzero;stroke:none;stroke-width:.231035" transform="translate(200.57 365.91)"/></g><g style="stroke-width:.231035"><path d="M0 0c-47.409-6.018-57.268-.726-57.58.688-.716 3.245 17.981-1.157 57.004 4.659 33.592 5.014 63.332 18.629 61.973 14.248C60.986 18.272 38.96 4.967 0 0" style="fill:#c5c5c7;fill-opacity:1;fill-rule:nonzero;stroke:none;stroke-width:.231035" transform="translate(200.614 365.993)"/></g><g style="stroke-width:.231035"><path d="M0 0c-46.073-5.86-56.251-.81-56.567.599C-57.27 3.737-38.724-.483-.582 5.206c32.903 4.912 61.914 18.192 60.743 13.929C59.804 17.837 38.078 4.875 0 0" style="fill:#c7c8c9;fill-opacity:1;fill-rule:nonzero;stroke:none;stroke-width:.231035" transform="translate(200.657 366.075)"/></g><g style="stroke-width:.231035"><path d="M0 0c-44.738-5.706-55.236-.895-55.554.511C-56.242 3.543-37.848-.5-.591 5.06c32.216 4.818 60.499 17.755 59.513 13.615C58.618 17.398 37.198 4.782 0 0" style="fill:#c9c9cb;fill-opacity:1;fill-rule:nonzero;stroke:none;stroke-width:.231035" transform="translate(200.7 366.158)"/></g><g style="stroke-width:.231035"><path d="M0 0c-43.402-5.552-54.221-.977-54.544.422-.673 2.925 17.572-.941 53.947 4.495C30.931 9.635 58.49 22.226 57.686 18.213 57.432 16.955 36.316 4.691 0 0" style="fill:#cbcccd;fill-opacity:1;fill-rule:nonzero;stroke:none;stroke-width:.231035" transform="translate(200.744 366.24)"/></g><g style="stroke-width:.231035"><path d="M0 0c-42.068-5.398-53.206-1.061-53.533.333-.656 2.82 17.436-.869 52.927 4.442 30.843 4.619 58.465 16.643 57.053 12.978C56.506 16.491 35.434 4.598 0 0" style="fill:#cccece;fill-opacity:1;fill-rule:nonzero;stroke:none;stroke-width:.231035" transform="translate(200.788 366.323)"/></g><g style="stroke-width:.231035"><path d="M0 0c-40.73-5.242-52.191-1.146-52.52.245-.639 2.711 17.299-.798 51.908 4.385C29.54 9.152 56.55 20.808 55.208 17.293 55.36 16.054 34.556 4.507 0 0" style="fill:#cfced0;fill-opacity:1;fill-rule:nonzero;stroke:none;stroke-width:.231035" transform="translate(200.83 366.405)"/></g><g style="stroke-width:.231035"><path d="M0 0c-39.397-5.086-51.176-1.23-51.509.156-.623 2.608 17.164-.726 50.891 4.33C28.844 8.911 55.24 20.198 53.97 16.833 54.214 15.615 33.674 4.414 0 0" style="fill:#d1d3d3;fill-opacity:1;fill-rule:nonzero;stroke:none;stroke-width:.231035" transform="translate(200.875 366.488)"/></g><g style="stroke-width:.231035"><path d="M0 0c-38.061-4.931-50.161-1.313-50.496.068-.606 2.5 17.027-.653 49.873 4.277C28.15 8.669 53.932 19.589 52.733 16.371 53.069 15.178 32.794 4.322 0 0" style="fill:#d4d4d4;fill-opacity:1;fill-rule:nonzero;stroke:none;stroke-width:.231035" transform="translate(200.917 366.57)"/></g><g style="stroke-width:.231035"><path d="M0 0c-36.725-4.777-49.146-1.397-49.483-.021-.589 2.395 16.887-.583 48.852 4.22 28.084 4.229 53.252 14.782 52.125 11.712C51.921 14.74 31.914 4.231 0 0" style="fill:#d6d5d7;fill-opacity:1;fill-rule:nonzero;stroke:none;stroke-width:.231035" transform="translate(200.961 366.652)"/></g><g style="stroke-width:.231035"><path d="M0 0c-35.39-4.619-48.131-1.481-48.473-.11-.569 2.288 16.753-.51 47.834 4.166 27.398 4.131 51.952 14.315 50.895 11.395C50.775 14.301 31.032 4.138 0 0" style="fill:#d7d8d8;fill-opacity:1;fill-rule:nonzero;stroke:none;stroke-width:.231035" transform="translate(201.005 366.735)"/></g><g style="stroke-width:.231035"><path d="M0 0c-34.056-4.465-47.114-1.566-47.46-.198-.551 2.181 16.616-.439 46.814 4.11 26.709 4.033 50.649 13.849 49.665 11.079C49.629 13.864 30.152 4.045 0 0" style="fill:#dbdad9;fill-opacity:1;fill-rule:nonzero;stroke:none;stroke-width:.231035" transform="translate(201.048 366.817)"/></g><g style="stroke-width:.231035"><path d="M0 0c-32.718-4.311-46.099-1.65-46.449-.287-.53 2.079 16.48-.367 45.797 4.056 26.02 3.933 49.346 13.382 48.432 10.76C48.483 13.427 29.272 3.954 0 0" style="fill:#dcdadc;fill-opacity:1;fill-rule:nonzero;stroke:none;stroke-width:.231035" transform="translate(201.091 366.9)"/></g><g style="stroke-width:.231035"><path d="M0 0c-31.385-4.157-45.084-1.735-45.436-.374-.511 1.969 16.343-.295 44.778 3.999 25.332 3.836 48.044 12.917 47.2 10.443C47.335 12.988 28.39 3.862 0 0" style="fill:#dededd;fill-opacity:1;fill-rule:nonzero;stroke:none;stroke-width:.231035" transform="translate(201.134 366.982)"/></g><g style="stroke-width:.231035"><path d="M0 0c-30.047-4.001-44.069-1.819-44.425-.464-.49 1.867 16.208-.224 43.76 3.944 24.643 3.741 46.741 12.454 45.968 10.128C46.189 12.549 27.51 3.769 0 0" style="fill:#e0dfde;fill-opacity:1;fill-rule:nonzero;stroke:none;stroke-width:.231035" transform="translate(201.178 367.065)"/></g><g style="stroke-width:.231035"><path d="M0 0c-28.705-3.906-43.052-1.901-43.413-.553-.47 1.76 16.072-.152 42.74 3.889 23.957 3.644 45.438 11.988 44.74 9.81C45.044 12.112 26.637 3.623 0 0" style="fill:#e3e2e1;fill-opacity:1;fill-rule:nonzero;stroke:none;stroke-width:.231035" transform="translate(201.22 367.147)"/></g><g style="stroke-width:.231035"><path d="M0 0c-27.369-3.75-42.037-1.986-42.402-.639-.447 1.652 15.934-.083 41.72 3.834 23.267 3.543 44.139 11.519 43.51 9.491C43.896 11.673 25.755 3.53 0 0" style="fill:#e3e4e4;fill-opacity:1;fill-rule:nonzero;stroke:none;stroke-width:.231035" transform="translate(201.265 367.23)"/></g><g style="stroke-width:.231035"><path d="M0 0c-26.033-3.596-41.02-2.07-41.389-.728C-41.815.821-25.59-.739-.686 3.049c22.579 3.446 42.832 11.057 42.275 9.175C42.75 11.237 24.877 3.435 0 0" style="fill:#e6e7e5;fill-opacity:1;fill-rule:nonzero;stroke:none;stroke-width:.231035" transform="translate(201.307 367.312)"/></g><g style="stroke-width:.231035"><path d="M0 0c-24.7-3.442-40.005-2.155-40.378-.819-.403 1.446 15.662.066 39.684 3.725 21.891 3.349 41.532 10.591 41.045 8.86C41.604 10.798 23.993 3.342 0 0" style="fill:#e8e7e7;fill-opacity:1;fill-rule:nonzero;stroke:none;stroke-width:.231035" transform="translate(201.352 367.394)"/></g><g style="stroke-width:.231035"><path d="M0 0c-23.364-3.286-38.987-2.241-39.365-.905-.38 1.338 15.524.133 38.664 3.667C20.5 6.014 39.528 12.887 39.112 11.304 40.458 10.359 23.113 3.25 0 0" style="fill:#ebeae9;fill-opacity:1;fill-rule:nonzero;stroke:none;stroke-width:.231035" transform="translate(201.395 367.477)"/></g><g style="stroke-width:.231035"><path d="M0 0c-22.028-3.127-37.968-2.323-38.352-.996-.357 1.237 15.387.207 37.645 3.615 20.513 3.152 38.924 9.658 38.582 8.225C39.31 9.922 22.233 3.157 0 0" style="fill:#ecebec;fill-opacity:1;fill-rule:nonzero;stroke:none;stroke-width:.231035" transform="translate(201.438 367.56)"/></g><g style="stroke-width:.231035"><path d="M0 0c-20.692-2.971-36.953-2.408-37.342-1.083-.331 1.129 15.253.277 36.629 3.558 19.823 3.056 37.622 9.192 37.35 7.907C38.164 9.483 21.351 3.066 0 0" style="fill:#eeedef;fill-opacity:1;fill-rule:nonzero;stroke:none;stroke-width:.231035" transform="translate(201.482 367.642)"/></g><g style="stroke-width:.231035"><path d="M0 0c-19.357-2.815-35.934-2.49-36.329-1.171-.308 1.025 15.115.348 35.609 3.503 19.135 2.956 36.321 8.727 36.118 7.592C37.019 9.046 20.471 2.977 0 0" style="fill:#f0f0f0;fill-opacity:1;fill-rule:nonzero;stroke:none;stroke-width:.231035" transform="translate(201.525 367.724)"/></g><g style="stroke-width:.231035"><path d="M0 0c-18.023-2.655-34.915-2.574-35.318-1.26-.281.922 14.978.422 34.59 3.448C17.719 5.047 34.29 10.45 34.161 9.462 35.873 8.607 19.591 2.887 0 0" style="fill:#f3f2f2;fill-opacity:1;fill-rule:nonzero;stroke:none;stroke-width:.231035" transform="translate(201.568 367.807)"/></g><g style="stroke-width:.231035"><path d="M0 0c-16.687-2.496-33.896-2.657-34.305-1.348-.255.816 14.843.491 33.571 3.393 17.757 2.76 33.716 7.795 33.659 6.957C34.725 8.171 18.709 2.798 0 0" style="fill:#f5f4f3;fill-opacity:1;fill-rule:nonzero;stroke:none;stroke-width:.231035" transform="translate(201.612 367.889)"/></g><g style="stroke-width:.231035"><path d="M0 0c-15.354-2.334-32.874-2.739-33.292-1.437-.23.713 14.703.563 32.549 3.338C16.328 4.564 31.671 9.232 31.686 8.54 33.579 7.732 17.829 2.711 0 0" style="fill:#f8f8f7;fill-opacity:1;fill-rule:nonzero;stroke:none;stroke-width:.231035" transform="translate(201.655 367.971)"/></g><g style="stroke-width:.231035"><path d="M0 0c-14.02-2.171-31.853-2.821-32.281-1.526-.203.61 14.568.635 31.532 3.284C15.634 4.322 30.361 8.62 30.445 8.08 32.433 7.293 16.945 2.625 0 0" style="fill:#f9f9f9;fill-opacity:1;fill-rule:nonzero;stroke:none;stroke-width:.231035" transform="translate(201.699 368.054)"/></g><g style="stroke-width:.231035"><path d="M0 0c-12.688-1.984-30.825-2.904-31.271-1.614-.173.506 14.434.707 30.516 3.228C14.938 4.081 29.053 8.012 29.207 7.62 31.287 6.856 16.058 2.574 0 0" style="fill:#fcfcfc;fill-opacity:1;fill-rule:nonzero;stroke:none;stroke-width:.231035" transform="translate(201.742 368.136)"/></g><g style="stroke-width:.231035"><path d="M0 0c-11.351-1.827-29.794-2.982-30.258-1.703-.145.405 14.299.779 29.496 3.174C14.244 3.838 27.744 7.402 27.972 7.16 30.14 6.417 15.178 2.484 0 0" style="fill:#fdfdfd;fill-opacity:1;fill-rule:nonzero;stroke:none;stroke-width:.231035" transform="translate(201.785 368.219)"/></g><g style="stroke-width:.231035"><path d="M0 0c-10.017-1.673-28.751-3.053-29.247-1.792-.116.302 14.161.851 28.477 3.119C13.547 3.598 26.434 6.795 26.732 6.7 28.994 5.98 14.298 2.391 0 0" style="fill:#fff;fill-opacity:1;fill-rule:nonzero;stroke:none;stroke-width:.231035" transform="translate(201.829 368.301)"/></g></g><g style="stroke-width:.231035"><path d="M159.007 400.01c-4.759-8.558-6.956-18.107-6.702-27.575 5.587-.218 11.705-.169 18.159.148-2.757 9.757-2.79 19.253-1.335 27.427z" style="fill:url(#b);stroke:none;stroke-width:.231035" transform="matrix(1.52694 0 0 -1.52694 -127.01 707.684)"/></g><g style="stroke-width:.231035"><path d="M154.713 357.757a54.205 54.205 0 0 1 13.298-22.265c2.469-.521 8.178-1.188 16.434 1.098-5.449 5.857-13.075 8.495-18 11.067-4.822 2.524-8.753 6.717-11.38 10.087.211-.004.418-.013.629-.016 10.812-11.756 18.772-8.203 30.798-20.529a59.24 59.24 0 0 1 5.999 2.307c-3.592 3.002-7.211 6.679-10.758 11.19a66.496 66.496 0 0 0-5.15 7.548c.86.059 1.725.124 2.597.192a80.467 80.467 0 0 1 4.928-7.284c3.148-4.157 6.608-7.727 10.312-10.753a78.585 78.585 0 0 1 8.487 4.81c-4.219 4.05-5.93 9.377-6.101 15.175-15.121-2.135-29.477-2.986-42.093-2.627" style="fill:url(#c);stroke:none;stroke-width:.231035" transform="matrix(1.52694 0 0 -1.52694 -127.01 707.684)"/></g><g style="stroke-width:.231035"><path d="M176.332 400.01h-5.814c-1.151-7.691-1.066-17.065 2.186-27.311 5.185.3 10.567.772 16.062 1.417l9.42 13.922-2.446 9.084-14.851-1.677 3.417 4.532h-.727v.033c-2.566 0-5.055.746-7.247 2.069z" style="fill:url(#d);stroke:none;stroke-width:.231035" transform="matrix(1.52694 0 0 -1.52694 -127.01 707.684)"/></g><g style="stroke-width:.231035"><path d="M201.898 361.144c-.951-.154-1.897-.294-2.841-.435h.005c.124-5.698 1.778-10.65 5.512-14.395 6.801 4.617 14.34 11.044 22.473 19.932a291.862 291.862 0 0 0-25.149-5.102m-2.859-.438c.006 0 .012 0 .018.003-.006-.003-.012-.003-.018-.003" style="fill:url(#e);stroke:none;stroke-width:.231035" transform="matrix(1.52694 0 0 -1.52694 -127.01 707.684)"/></g><g style="stroke-width:.231035"><path d="M183.518 333.108c-6.193-1.549-10.265-1.075-12.861-.118.365-.321.732-.64 1.105-.957 5.39-4.502 11.383-7.748 17.627-9.769 1.503 3.964.42 8.25-2.491 11.66a35.764 35.764 0 0 0-3.38-.816" style="fill:url(#f);stroke:none;stroke-width:.231035" transform="matrix(1.52694 0 0 -1.52694 -127.01 707.684)"/></g><g style="stroke-width:.231035"><path d="M249.767 400.599c-.752-2.651-2.427-7.815-5.527-14.239 3.63 1.257 7.055 2.57 10.252 3.936a54.773 54.773 0 0 1-4.724 10.303z" style="fill:url(#g);stroke:none;stroke-width:.231035" transform="matrix(1.52694 0 0 -1.52694 -127.01 707.684)"/></g><g style="stroke-width:.231035"><path d="M232.715 367.729a103.127 103.127 0 0 0-15.649-16.239 91.598 91.598 0 0 0-9.729-7.466c12.905-8.797 32.333.451 47.709 12.831 1.902 6.23 2.628 12.723 2.238 19.146-7.415-3.057-15.696-5.843-24.569-8.272m-.013-.004c.006 0 .011.004.013.004l.002.003c-.004-.003-.009-.007-.015-.007" style="fill:url(#h);stroke:none;stroke-width:.231035" transform="matrix(1.52694 0 0 -1.52694 -127.01 707.684)"/></g><g style="stroke-width:.231035"><path d="M205.654 342.931a88.217 88.217 0 0 0-8.415-4.712c10.473-7.531 22.711-10.925 35.596-10.583a52.09 52.09 0 0 1 12.847 11.497 53.145 53.145 0 0 1 9.253 17.353c-7.39-6.702-31.488-26.229-49.281-13.555" style="fill:url(#i);stroke:none;stroke-width:.231035" transform="matrix(1.52694 0 0 -1.52694 -127.01 707.684)"/></g><g style="stroke-width:.231035"><path d="M190.798 335.539a67.921 67.921 0 0 0-2.097-.816c5.001-6.587 3.619-11.668 2.676-13.063 13.862-3.884 28.786-1.857 41.08 5.746-4.23-.833-20.114-2.802-37.161 9.886-1.108-.506-2.936-1.19-4.498-1.753" style="fill:url(#j);stroke:none;stroke-width:.231035" transform="matrix(1.52694 0 0 -1.52694 -127.01 707.684)"/></g><g style="stroke-width:.231035"><path d="M239.322 404.486c0-5.6-3.244-10.012-9.633-13.121-1.966-.956-15.854-7.381-27.247-12.646a84.427 84.427 0 0 1-.911-2.806c-.465-.077-.92-.157-1.386-.231 14.243 2.259 27.796 5.421 39.574 9.178a142.677 142.677 0 0 1 8.493 18.218c-.093.136-.188.267-.281.404a16.663 16.663 0 0 0-8.614 1.078c0-.023.005-.051.005-.074" style="fill:url(#k);stroke:none;stroke-width:.231035" transform="matrix(1.52694 0 0 -1.52694 -127.01 707.684)"/></g><g style="stroke-width:.231035"><path d="M193.873 374.763c1.73.234 3.469.489 5.21.758.188.643.379 1.28.585 1.915l-5.795-2.673" style="fill:url(#l);stroke:none;stroke-width:.231035" transform="matrix(1.52694 0 0 -1.52694 -127.01 707.684)"/></g><g clip-path="url(#m)" style="stroke-width:.231035" transform="matrix(1.52694 0 0 -1.52694 -127.01 707.684)"><g style="stroke-width:.231035"><path d="M0 0c-.093.382-.125.677-.091.888.03.184.11.308.249.378l.861.426c-.025-.312.007-.681.095-1.112.089-.43.205-.795.355-1.097.2-.405.441-.68.728-.829.285-.148.593-.142.922.019.494.242.721.753.681 1.525L3.752 1.31c-.023.551.065 1.018.27 1.397.203.382.546.69 1.026.929.609.299 1.19.283 1.74-.045.551-.331 1.026-.901 1.423-1.707.206-.422.367-.723.481-.913a1.2 1.2 0 0 1 .377-.416L8.143.099C8.042.046 7.951.044 7.871.093c-.078.046-.163.145-.255.297-.091.15-.226.408-.406.771-.517 1.048-1.027 1.447-1.536 1.198-.238-.118-.403-.274-.496-.468-.093-.192-.133-.45-.122-.768l.046-.999c.034-.675-.04-1.226-.219-1.658-.182-.429-.559-.785-1.135-1.068-.707-.346-1.353-.365-1.935-.053C1.228-2.34.739-1.787.348-.992A4.835 4.835 0 0 0 0 0" style="fill:#fff;fill-opacity:1;fill-rule:nonzero;stroke:none;stroke-width:.231035" transform="translate(139.945 334.347)"/></g><g style="stroke-width:.231035"><path d="M0 0c-.038.468.12.947.475 1.441.356.49.958 1 1.806 1.532l3.528 2.203c.099.061.182.089.249.08.068-.006.133-.057.192-.156l.597-.951-3.667-2.29c-.604-.378-1.045-.717-1.325-1.017C1.574.54 1.422.26 1.395 0c-.03-.26.05-.536.232-.829.181-.289.397-.481.641-.572.245-.091.566-.074.958.044.395.12.893.367 1.497.745L7.232.954c.312.196.55.331.723.411.171.083.308.114.414.104.105-.011.194-.07.264-.182l.599-.962c-.293-.049-.69-.226-1.188-.54L5.328-1.908c-.848-.529-1.572-.848-2.169-.949-.599-.104-1.097-.036-1.5.202-.404.241-.771.627-1.102 1.161C.226-.964.04-.466 0 0" style="fill:#fff;fill-opacity:1;fill-rule:nonzero;stroke:none;stroke-width:.231035" transform="translate(143.366 328.3)"/></g><g style="stroke-width:.231035"><path d="M0 0c-.008.093.038.207.137.338l4.773 5.79a.62.62 0 0 0 .097.097c.148.12.273.12.376-.002l.658-.796L2.602 1.3 1.568.141l-.251-.27 1.652.988 4.429 2.475c.11.072.199.093.268.059.072-.027.158-.105.26-.23l.873-1.049c.097-.118.15-.215.161-.291.008-.076-.032-.173-.125-.289L5.624-2.33 4.376-3.771l1.636.973 4.324 2.403c.147.085.278.102.39.057a.89.89 0 0 0 .331-.261l.608-.733a1.116 1.116 0 0 1-.435-.048 3.583 3.583 0 0 1-.46-.203L4.594-5.02c-.144-.08-.26-.106-.355-.078a.64.64 0 0 0-.282.217l-.764.916c-.104.124-.159.234-.165.333-.006.097.036.213.129.338l4.332 5.229-5.938-3.298c-.146-.064-.266-.083-.359-.059-.093.019-.188.09-.285.209l-.734.88C.065-.205.006-.093 0 0" style="fill:#fff;fill-opacity:1;fill-rule:nonzero;stroke:none;stroke-width:.231035" transform="translate(147.578 321.714)"/></g><g style="stroke-width:.231035"><path d="M0 0c.289-.046.627.044 1.017.272.39.226.853.631 1.386 1.209.536.587.904 1.083 1.1 1.488.196.407.257.753.183 1.038-.076.287-.255.564-.542.825-.293.27-.587.429-.878.479-.291.049-.631-.042-1.019-.27-.388-.232-.85-.639-1.386-1.226-.532-.58-.899-1.072-1.091-1.479-.199-.405-.26-.751-.186-1.038.076-.287.26-.564.551-.832C-.578.203-.289.046 0 0m-2.815 1.96c.112.84.65 1.783 1.612 2.832.967 1.055 1.861 1.671 2.691 1.855.827.186 1.662-.11 2.509-.886.844-.775 1.209-1.581 1.093-2.419-.116-.837-.657-1.783-1.623-2.836C2.505-.542 1.612-1.159.787-1.346c-.823-.188-1.661.107-2.503.882-.846.776-1.211 1.584-1.099 2.424" style="fill:#fff;fill-opacity:1;fill-rule:nonzero;stroke:none;stroke-width:.231035" transform="translate(157.82 312.604)"/></g><g style="stroke-width:.231035"><path d="m0 0 .753-.544c.256-.184.329-.412.226-.688l-1.705-6.62.766 1.118 2.385 3.296c.223.313.396.532.519.667.12.133.228.218.329.249.097.034.198.013.304-.065l.865-.625c-.255-.181-.549-.504-.88-.964L-.074-9.2c-.272-.378-.597-.429-.975-.159l-.734.53a.612.612 0 0 0-.23.289.66.66 0 0 0-.006.365l1.711 6.727a76.614 76.614 0 0 0-.827-1.238l-2.948-4.079c-.127-.175-.277-.201-.45-.074l-.835.606L-.99-.177C-.707.215-.378.272 0 0" style="fill:#fff;fill-opacity:1;fill-rule:nonzero;stroke:none;stroke-width:.231035" transform="translate(165.502 315.025)"/></g><g style="stroke-width:.231035"><path d="m0 0 .992-.502-1.731-3.429 3.474 1.945c.177.116.356.178.536.184a.886.886 0 0 0 .453-.08l1.138-.574a1.833 1.833 0 0 1-.458-.102 5.704 5.704 0 0 1-.553-.274L.504-4.674l.642-5.088L0-9.186c-.135.07-.219.135-.255.195a1.518 1.518 0 0 0-.102.346l-.504 4.469-1.694-3.357c-.098-.19-.245-.239-.444-.137l-.97.491L-.426-.158C-.325.04-.184.091 0 0" style="fill:#fff;fill-opacity:1;fill-rule:nonzero;stroke:none;stroke-width:.231035" transform="translate(174.036 309.426)"/></g><g style="stroke-width:.231035"><path d="m0 0 .329.842c.08.207.217.274.409.198L4.733-.517c.314-.122.572-.211.775-.266.206-.055.384-.072.531-.046l-.363-.931a.325.325 0 0 0-.223-.209c-.104-.023-.245-.01-.429.04a8.627 8.627 0 0 0-.785.275l-.81.316-2.412-6.183c-.078-.2-.219-.261-.428-.179l-1.013.395 2.53 6.484z" style="fill:#fff;fill-opacity:1;fill-rule:nonzero;stroke:none;stroke-width:.231035" transform="translate(178.203 305.948)"/></g><g style="stroke-width:.231035"><path d="M0 0c.298.12.494.384.589.793.088.389.055.699-.102.927-.154.234-.502.411-1.046.536-.118.029-.234.05-.348.069l-.296.045c-.167.023-.28.042-.34.052L-2.057.19l.873-.203C-.694-.125-.298-.12 0 0m-.616-3.611c.329.129.546.416.65.861.099.439.044.773-.167.996-.211.226-.547.391-1.009.498l-1.183.271-.545-2.368a9.525 9.525 0 0 1 1.072-.293c.456-.104.848-.091 1.182.035m-2.56-.924c-.555.154-.992.283-1.312.388L-2.663 3.8A22.597 22.597 0 0 0-.31 3.435c.943-.219 1.61-.563 1.99-1.034.384-.472.481-1.107.297-1.905-.099-.439-.257-.768-.475-.988a2.269 2.269 0 0 0-.801-.527 1.89 1.89 0 0 0 .671-.872 2 2 0 0 0 .061-1.167C1.247-3.872.859-4.425.268-4.721c-.589-.295-1.329-.341-2.224-.135-.262.06-.669.165-1.22.321" style="fill:#fff;fill-opacity:1;fill-rule:nonzero;stroke:none;stroke-width:.231035" transform="translate(190.396 300.036)"/></g><g style="stroke-width:.231035"><path d="m0 0-1.422-3.256 2.004-.245Zm1.781-6.949c-.236.032-.405.076-.507.142-.105.067-.17.187-.196.358L.781-4.704l-2.697.327-.734-1.677a.597.597 0 0 0-.178-.232c-.078-.061-.154-.087-.228-.078l-1.059.128L-.77 1.19c.082.169.162.272.242.319.078.042.209.055.391.031L.5 1.462c.175-.019.291-.061.355-.122.061-.063.111-.182.152-.365l1.512-8.012z" style="fill:#fff;fill-opacity:1;fill-rule:nonzero;stroke:none;stroke-width:.231035" transform="translate(196.603 300.658)"/></g><g style="stroke-width:.231035"><path d="M0 0c-.38.093-.654.205-.829.327-.15.114-.224.245-.22.397l.023.962a3.96 3.96 0 0 1 1.028-.428c.422-.123.8-.186 1.137-.197.45-.01.807.078 1.072.262.264.186.401.462.41.827.015.549-.332.988-1.036 1.311l-1.009.47c-.498.234-.871.528-1.114.887-.243.356-.359.803-.346 1.337.017.682.297 1.188.844 1.524.549.335 1.27.492 2.173.468.467-.01.811-.008 1.032.005.222.014.403.063.543.143l-.024-1.032c-.002-.114-.042-.196-.122-.245-.076-.046-.203-.078-.38-.088a11.048 11.048 0 0 0-.871 0c-1.169.027-1.76-.243-1.775-.808-.006-.268.057-.488.186-.657.128-.173.337-.325.626-.464l.906-.422c.614-.283 1.067-.601 1.365-.96.297-.361.439-.861.424-1.503-.021-.787-.304-1.367-.85-1.738C2.644.004 1.927-.173 1.04-.15.726-.141.38-.093 0 0" style="fill:#fff;fill-opacity:1;fill-rule:nonzero;stroke:none;stroke-width:.231035" transform="translate(201.335 293.559)"/></g><g style="stroke-width:.231035"><path d="m0 0 1.11.08.274-3.83L3.366-.3c.093.192.217.338.365.435A.93.93 0 0 0 4.163.3l1.271.09a1.663 1.663 0 0 1-.34-.322 6.065 6.065 0 0 1-.338-.52L2.832-3.75l3.163-4.037-1.279-.092c-.152-.011-.259.002-.321.033a1.402 1.402 0 0 0-.263.245L1.405-4.024l.268-3.752c.015-.213-.088-.329-.308-.344L.279-8.198-.285-.352c-.017.219.08.335.285.352" style="fill:#fff;fill-opacity:1;fill-rule:nonzero;stroke:none;stroke-width:.231035" transform="translate(206.713 301.715)"/></g><g style="stroke-width:.231035"><path d="m0 0-1.154 6.632c-.085.481.116.764.597.848l2.608.454c.853.148 1.391.304 1.618.467l.167-.961a.305.305 0 0 0-.112-.31c-.101-.078-.27-.15-.506-.215a12.773 12.773 0 0 0-1.057-.22l-1.57-.274C.487 6.404.42 6.377.392 6.343c-.029-.038-.035-.105-.019-.202l.33-1.887 3.218.559.152-.869c.038-.217-.055-.346-.283-.384L.911 3.055 1.272.979c.017-.099.045-.158.085-.184.038-.025.109-.029.215-.008l2.089.363c.618.108 1.038.243 1.258.403L5.094.538c.021-.112-.006-.202-.08-.27C4.942.2 4.813.141 4.632.091a9.424 9.424 0 0 0-.823-.173L.846-.595C.367-.68.082-.483 0 0" style="fill:#fff;fill-opacity:1;fill-rule:nonzero;stroke:none;stroke-width:.231035" transform="translate(213.988 294.874)"/></g><g style="stroke-width:.231035"><path d="m0 0-.241.874c-.061.213.013.348.209.4l4.134 1.14c.327.089.587.173.783.249.196.078.346.171.452.281l.263-.965a.31.31 0 0 0-.052-.299c-.07-.083-.192-.157-.365-.226a9.719 9.719 0 0 0-.796-.249l-.838-.23 1.76-6.398c.055-.209-.023-.34-.238-.401l-1.049-.287L2.178.597Z" style="fill:#fff;fill-opacity:1;fill-rule:nonzero;stroke:none;stroke-width:.231035" transform="translate(218.342 301.96)"/></g><g style="stroke-width:.231035"><path d="M0 0c.205.291.221.652.059 1.078-.162.422-.395.665-.694.732-.3.072-.673.019-1.114-.149l-1.134-.435.87-2.271c.232.057.584.176 1.055.357.435.167.753.397.958.688m-1.505 3.34c.18.266.197.593.045.988-.144.371-.342.608-.602.715-.257.104-.645.057-1.165-.143a9.007 9.007 0 0 1-.331-.137c-.101-.049-.19-.091-.266-.129a5.264 5.264 0 0 0-.314-.146l.821-2.139.835.32c.471.182.796.405.977.671m-.103-5.537a33.775 33.775 0 0 0-1.302-.407l-2.925 7.607c.304.167.676.35 1.108.557.433.201.783.355 1.047.456.905.348 1.648.433 2.23.255.578-.179 1.015-.65 1.311-1.413.16-.42.213-.783.158-1.087a2.39 2.39 0 0 0-.374-.886 1.84 1.84 0 0 0 1.043-.349c.316-.221.551-.533.703-.932C1.69.827 1.678.15 1.357-.424 1.03-1 .441-1.452-.414-1.781a30.096 30.096 0 0 0-1.194-.416" style="fill:#fff;fill-opacity:1;fill-rule:nonzero;stroke:none;stroke-width:.231035" transform="translate(230.216 299.91)"/></g><g style="stroke-width:.231035"><path d="m0 0 .635-3.499 1.798.916zm5.351-4.78c-.211-.105-.38-.162-.502-.164-.122-.002-.243.063-.361.19L3.271-3.469.846-4.702l.327-1.802a.59.59 0 0 0-.019-.293.31.31 0 0 0-.145-.192L.055-7.47-1.3.561c-.027.184-.019.317.023.397.04.078.142.16.304.245l.574.293c.156.078.277.11.361.093.086-.017.196-.089.331-.22L6.016-4.44Z" style="fill:#fff;fill-opacity:1;fill-rule:nonzero;stroke:none;stroke-width:.231035" transform="translate(233.499 307.221)"/></g><g style="stroke-width:.231035"><path d="m0 0-3.828 6.016c-.12.184-.089.338.091.452l.928.59L.8 1.391c.048-.076.097-.121.139-.133.044-.013.106.004.184.052l1.684 1.072c.527.336.86.623 1.004.857l.551-.871c.063-.097.074-.19.029-.281-.04-.089-.137-.194-.285-.31a9.042 9.042 0 0 0-.694-.477L1.013-.224C.599-.487.262-.414 0 0" style="fill:#fff;fill-opacity:1;fill-rule:nonzero;stroke:none;stroke-width:.231035" transform="translate(240.415 304.213)"/></g><g style="stroke-width:.231035"><path d="m0 0-4.355 5.647c-.135.177-.119.329.052.46l.87.671 4.104-5.32c.057-.072.105-.11.154-.12.042-.009.101.015.175.072l1.579 1.217c.498.384.804.699.922.943l.631-.816c.069-.091.088-.182.055-.275-.034-.095-.119-.206-.258-.335a8.547 8.547 0 0 0-.648-.538L1.028-.131C.641-.428.3-.386 0 0" style="fill:#fff;fill-opacity:1;fill-rule:nonzero;stroke:none;stroke-width:.231035" transform="translate(245.696 307.693)"/></g><g style="stroke-width:.231035"><path d="M0 0c-.855.108-1.792.656-2.804 1.64A5.786 5.786 0 0 0-4.03 3.321a3.215 3.215 0 0 0-.277 1.878c.097.65.441 1.283 1.032 1.889.287.3.515.547.682.753.168.205.278.391.339.557l.728-.709c.095-.09.131-.189.104-.299-.028-.108-.108-.245-.243-.41a13.035 13.035 0 0 0-.682-.747c-.47-.479-.662-1.031-.578-1.652.085-.62.452-1.247 1.106-1.882C-.405 1.325.76 1.11 1.684 2.057c.542.56.909 1.091 1.103 1.596l.676-.654a.405.405 0 0 0 .114-.201.321.321 0 0 0-.019-.209 4.086 4.086 0 0 0-.414-.713 5.54 5.54 0 0 0-.589-.73C1.707.276.855-.108 0 0" style="fill:#fff;fill-opacity:1;fill-rule:nonzero;stroke:none;stroke-width:.231035" transform="translate(253.331 314.37)"/></g><g style="stroke-width:.231035"><path d="m0 0-5.55 4.48c-.171.137-.192.291-.057.458l.692.856 5.227-4.22c.072-.057.131-.084.175-.082.047 0 .1.038.157.11l1.251 1.553c.397.487.62.863.681 1.129l.802-.646c.091-.074.127-.158.116-.255-.01-.1-.067-.23-.171-.387a9.283 9.283 0 0 0-.506-.673L1.03.112C.724-.27.382-.308 0 0" style="fill:#fff;fill-opacity:1;fill-rule:nonzero;stroke:none;stroke-width:.231035" transform="translate(257.714 318.788)"/></g><g style="stroke-width:.231035"><path d="M0 0c-.407-.232-.91-.291-1.505-.177-.597.114-1.314.445-2.154.989l-3.49 2.269c-.095.061-.154.126-.175.19-.022.065-.003.145.061.24l.612.944 3.623-2.357c.597-.387 1.091-.646 1.483-.773.391-.126.709-.145.958-.061.245.087.462.274.65.561.188.289.27.564.247.823-.021.262-.169.545-.443.851-.276.306-.711.654-1.308 1.04l-2.478 1.612a8.06 8.06 0 0 0-.681.483c-.142.121-.232.233-.268.332-.034.101-.017.204.055.314l.618.95c.169-.245.498-.528.992-.849l2.684-1.745C.319 5.09.912 4.568 1.258 4.07c.346-.5.493-.981.447-1.447-.049-.466-.245-.96-.585-1.486C.779.612.403.232 0 0" style="fill:#fff;fill-opacity:1;fill-rule:nonzero;stroke:none;stroke-width:.231035" transform="translate(262.82 324.591)"/></g><g style="stroke-width:.231035"><path d="M0 0c-.046.352-.274.633-.684.836-.405.204-.74.23-1.008.08-.27-.154-.509-.439-.724-.863l-.545-1.085 2.174-1.093c.131.198.312.521.538.973C-.04-.737.044-.35 0 0m-3.362 1.458c-.046.321-.257.572-.633.762-.354.179-.662.219-.924.124-.261-.095-.517-.39-.768-.89a5.828 5.828 0 0 1-.262-.599c-.065-.157-.107-.264-.135-.317l2.049-1.03.401.8c.228.447.317.834.272 1.15M.287-2.703a33.541 33.541 0 0 0-.688-1.182L-7.687-.222c.114.327.263.712.447 1.153.184.443.34.791.466 1.044.437.867.929 1.431 1.48 1.688.546.258 1.19.205 1.918-.162.403-.203.688-.437.85-.697.165-.263.27-.563.321-.907.289.251.622.399 1.006.445.382.047.764-.025 1.148-.217.743-.376 1.19-.884 1.336-1.528.15-.641.015-1.374-.397-2.194a32.12 32.12 0 0 0-.601-1.106" style="fill:#fff;fill-opacity:1;fill-rule:nonzero;stroke:none;stroke-width:.231035" transform="translate(267.004 334.217)"/></g></g></g></svg>